# xmcd
#
# Track frame offsets: 
#        150
#        13912
#        28477
#        43847
#        57664
#        73126
#        88618
#        105451
#        118453
#        131745
#        147846
#
# Disc length: 2164 seconds
#
# Revision: 0
# Processed by: cddbd v1.5.2PL0 Copyright (c) Steve Scherf et al.
# Submitted via: ExactAudioCopy v1.0b1
#
DISCID=af08720b
DTITLE=Merle Haggard, Willie Nelson and Ray Price - Last Of The Breed (C
DTITLE=D1)
DYEAR=2007
DGENRE=Country
TTITLE0=My Life's Been A Pleasure
TTITLE1=My Mary
TTITLE2=Back to Earth
TTITLE3=Heartaches By The Number
TTITLE4=Mom And Dad's Waltz
TTITLE5=Some Other World
TTITLE6=Why Me
TTITLE7=Lost Highway
TTITLE8=I Love You A Thousand Ways
TTITLE9=Please Don't Leave Me Anymore Darlin'
TTITLE10=I Gotta Have My Baby Back
EXTD=
EXTT0=
EXTT1=
EXTT2=
EXTT3=
EXTT4=
EXTT5=
EXTT6=
EXTT7=
EXTT8=
EXTT9=
EXTT10=
PLAYORDER=
